<?xml version="1.0" standalone="no"?>
<!DOCTYPE svg PUBLIC "-//W3C//DTD SVG 1.0//EN" "http://www.w3.org/TR/2001/REC-SVG-20010904/DTD/svg10.dtd">
<svg xmlns="http://www.w3.org/2000/svg" xmlns:xlink="http://www.w3.org/1999/xlink" id="body_1" width="397" height="397">

<g transform="matrix(0.7001764 0 0 0.7001764 0 0)">
	<g transform="matrix(3.2004 0 0 3.2004 0 0)">
		<g transform="matrix(1 0 0 1 -0 -875.19684)">
			<g transform="matrix(1.5213953 0 0 1.5213953 418.6697 -2009.2083)">
				<g transform="matrix(1 0 0 1 198.74452 -0.08084291)">
					<g transform="matrix(1 0 0 1 -5.92157 -0)">
						<g transform="matrix(1 0 0 1 180.53839 8.479554)">
                            <path d="M-643.89734 1948.4927C -643.89734 1919.3273 -620.02576 1895.6841 -590.57874 1895.6841C -561.1317 1895.6841 -537.26013 1919.3273 -537.26013 1948.4927C -537.26013 1977.6581 -561.1317 2001.3013 -590.57874 2001.3013C -620.02576 2001.3013 -643.89734 1977.6581 -643.89734 1948.4927" stroke="none" fill="#D8E2DB" fill-rule="nonzero" />
                            <path d="M-564.74854 1908.714C -570.1937 1908.714 -574.6079 1913.1282 -574.6079 1918.5734C -574.6039 1919.3589 -575.91547 1918.9673 -575.72626 1919.7296C -580.57056 1921.3784 -585.3453 1923.8254 -587.9041 1925.876C -594.39294 1931.0759 -596.6409 1936.9269 -599.19104 1943.4701C -600.22314 1946.1183 -600.4153 1949.0012 -600.52356 1951.9172C -600.6078 1954.1835 -601.23846 1958.9323 -601.5726 1961.1487C -598.7974 1958.0923 -599.9832 1951.7844 -598.649 1946.9972C -597.391 1942.4835 -592.8538 1926.5616 -580.31476 1923.8488C -576.9229 1923.115 -576.129 1921.1289 -571.2108 1922.2479C -569.7974 1922.9929 -566.3462 1928.4303 -564.7485 1928.4324C -559.30334 1928.4324 -554.88916 1924.0182 -554.8891 1918.5731C -554.8891 1913.1279 -559.3033 1908.7137 -564.7485 1908.7137L-564.7485 1908.7137L-564.74854 1908.714zM-601.3379 1959.8578L-607.5367 1967.8342C -609.24744 1966.5331 -611.3364 1965.8268 -613.48566 1965.8225C -618.93085 1965.8225 -623.34503 1970.2367 -623.34503 1975.6819C -623.345 1981.1271 -618.9308 1985.5411 -613.48566 1985.5411C -608.0405 1985.5411 -603.62634 1981.1271 -603.6263 1975.6819C -603.6313 1973.6079 -604.2895 1971.5881 -605.5083 1969.91C -603.78656 1968.279 -602.313 1966.6237 -601.4349 1965.0895C -601.3916 1965.0134 -601.3533 1964.9371 -601.31165 1964.861C -596.5958 1961.2916 -592.4621 1960.0509 -588.1555 1958.1185C -588.1555 1958.1185 -592.25354 1957.797 -594.33795 1958.8647C -596.3785 1959.9099 -601.55963 1963.401 -601.79803 1963.5526C -600.8582 1961.8256 -601.6223 1961.7449 -601.3379 1959.8577zM-608.63684 1917.4834C -614.08203 1917.4834 -618.4962 1921.8976 -618.4962 1927.3428C -618.4962 1932.788 -614.08203 1937.2021 -608.63684 1937.2021C -606.7799 1937.2021 -604.9612 1936.6746 -603.3901 1935.6847C -600.5212 1933.8813 -598.7793 1930.7313 -598.77747 1927.3427C -598.77747 1921.8975 -603.19165 1917.4833 -608.63684 1917.4833zM-578.29614 1948.5597C -583.74133 1948.5597 -588.1555 1952.9739 -588.1555 1958.4191C -588.1555 1963.8643 -583.74133 1968.2784 -578.29614 1968.2784C -572.85095 1968.2784 -568.43677 1963.8643 -568.43677 1958.4191C -568.43677 1952.9739 -572.85095 1948.5597 -578.29614 1948.5597z" stroke="none" fill="#C2D2C7" fill-rule="nonzero" />
                            <path d="M-621.65875 1978.7144C -621.65875 1978.7144 -607.7325 1970.1849 -604.0637 1963.7751C -600.39496 1957.3654 -602.96204 1949.4034 -600.4119 1942.8602C -597.8618 1936.317 -595.61334 1930.4651 -589.1245 1925.2653C -582.6357 1920.0653 -561.902 1915.3058 -561.902 1915.3058" stroke="#000000" stroke-width="3.2864563" fill="none" />
                            <path d="M-606.2558 1974.367C -606.2558 1977.0896 -607.2184 1979.4136 -609.14355 1981.3386C -611.0687 1983.2639 -613.3926 1984.2264 -616.1152 1984.2263C -618.83777 1984.2264 -621.1616 1983.2639 -623.0868 1981.3386C -625.01196 1979.4136 -625.97455 1977.0896 -625.97455 1974.367C -625.97455 1971.6444 -625.01196 1969.3206 -623.0868 1967.3953C -621.1616 1965.4702 -618.83777 1964.5076 -616.1152 1964.5076C -613.3926 1964.5076 -611.0687 1965.4702 -609.14355 1967.3953C -607.2184 1969.3206 -606.2558 1971.6444 -606.2558 1974.367C -606.2558 1974.4817 -606.2578 1974.5964 -606.26184 1974.711" stroke="#000000" stroke-width="1.9718739" stroke-linecap="round" fill="#C4E7CF" fill-rule="nonzero" />
                            <path d="M-571.0657 1957.1039C -571.0657 1959.8264 -572.02826 1962.1504 -573.9534 1964.0756C -575.8786 1966.0007 -578.2025 1966.9633 -580.92505 1966.9633C -583.64764 1966.9633 -585.9715 1966.0007 -587.89667 1964.0756C -589.82184 1962.1504 -590.7844 1959.8264 -590.7844 1957.1039C -590.7844 1954.3813 -589.82184 1952.0575 -587.89667 1950.1322C -585.9715 1948.2072 -583.64764 1947.2446 -580.92505 1947.2445C -578.2025 1947.2446 -575.8786 1948.2072 -573.9534 1950.1322C -572.02826 1952.0575 -571.0657 1954.3813 -571.0657 1957.1039C -571.0657 1957.2188 -571.0677 1957.3334 -571.07166 1957.448" stroke="#000000" stroke-width="1.9718739" stroke-linecap="round" fill="#C4E7CF" fill-rule="nonzero" />
                            <path d="M-601.4067 1926.0281C -601.40674 1928.7507 -602.36926 1931.0746 -604.29443 1932.9998C -606.2196 1934.9249 -608.5435 1935.8875 -611.26605 1935.8875C -613.98865 1935.8875 -616.3125 1934.9249 -618.2377 1932.9998C -620.16284 1931.0746 -621.1254 1928.7507 -621.1254 1926.0281C -621.1254 1923.3055 -620.16284 1920.9817 -618.2377 1919.0564C -616.3125 1917.1313 -613.98865 1916.1687 -611.26605 1916.1687C -608.5435 1916.1687 -606.2196 1917.1313 -604.29443 1919.0564C -602.36926 1920.9817 -601.40674 1923.3055 -601.4067 1926.0281C -601.40674 1926.143 -601.4087 1926.2576 -601.4127 1926.3722" stroke="#000000" stroke-width="1.9718739" stroke-linecap="round" fill="#C4E7CF" fill-rule="nonzero" />
                            <path d="M-557.51825 1917.259C -557.51825 1919.9817 -558.48083 1922.3055 -560.406 1924.2307C -562.3312 1926.1559 -564.655 1927.1184 -567.3776 1927.1184C -570.1002 1927.1184 -572.4241 1926.1559 -574.34924 1924.2307C -576.2744 1922.3055 -577.237 1919.9817 -577.237 1917.259C -577.237 1914.5366 -576.2744 1912.2126 -574.34924 1910.2874C -572.4241 1908.3623 -570.1002 1907.3998 -567.3776 1907.3997C -564.655 1907.3998 -562.3312 1908.3623 -560.406 1910.2874C -558.48083 1912.2126 -557.51825 1914.5366 -557.51825 1917.259C -557.51825 1917.3738 -557.52026 1917.4885 -557.5243 1917.6031" stroke="#000000" stroke-width="1.9718739" stroke-linecap="round" fill="#C4E7CF" fill-rule="nonzero" />
                            <path d="M-604.0637 1963.6093C -604.0637 1963.6093 -598.18054 1959.8633 -596.0961 1958.7955C -594.0117 1957.7278 -590.7844 1956.8036 -590.7844 1956.8036" stroke="#000000" stroke-width="3.2864563" fill="none" />
                            <path d="M-601.68286 1951.5507L-606.0556 1934.2289" stroke="#000000" stroke-width="3.2864563" fill="none" />
                            <path d="M-621.0839 1970.611C -620.71185 1971.5288 -618.4552 1972.0056 -617.6214 1973.7213C -616.78766 1975.4371 -619.0951 1978.6018 -618.5017 1980.1182C -617.9083 1981.6345 -617.4377 1981.6063 -616.7411 1981.644C -616.0445 1981.682 -615.8483 1981.5651 -615.2152 1980.5876C -614.5821 1979.6099 -614.0499 1977.6691 -613.9828 1976.1863C -613.9157 1974.7035 -613.9084 1972.9907 -614.62836 1971.7847C -615.34827 1970.5786 -617.4563 1969.6486 -618.5017 1969.2025C -619.54706 1968.7565 -620.03314 1968.3737 -620.61444 1968.733C -621.19574 1969.0923 -621.456 1969.6932 -621.0839 1970.6111L-621.0839 1970.6111L-621.0839 1970.611z" stroke="none" fill="#673EDE" fill-rule="nonzero" />
                            <path d="M-567.63556 1920.293L-567.63556 1917.0065C -567.63556 1917.0065 -570.1845 1917.7675 -571.2741 1917.476C -572.3637 1917.1844 -573.73895 1915.598 -573.73895 1915.598C -573.73895 1915.598 -571.2574 1915.0245 -570.2178 1915.2458C -569.1781 1915.4672 -567.7529 1916.6543 -567.7529 1916.6543C -567.7529 1916.6543 -565.1922 1915.1526 -563.99695 1915.1285C -562.80176 1915.1045 -561.0626 1916.1848 -561.0626 1916.1848C -561.0626 1916.1848 -562.0871 1916.9082 -563.17535 1917.1238C -564.2636 1917.3394 -567.5182 1917.0063 -567.5182 1917.0063L-567.5182 1917.0063L-567.5473 1920.2268L-567.63556 1920.293z" stroke="none" fill="#0F5914" fill-rule="nonzero" />
                            <path d="M-581.19794 1957.7406C -581.19794 1957.7406 -583.5014 1958.5992 -584.21484 1958.545C -584.92834 1958.4911 -585.0274 1958.7843 -585.28754 1958.0757C -585.54767 1957.367 -584.6578 1955.7747 -583.81256 1955.0587C -582.96735 1954.3428 -581.6934 1954.0997 -580.66156 1954.1202C -579.6297 1954.1412 -578.62305 1954.3984 -577.9128 1955.0587C -577.2026 1955.719 -576.5417 1957.0471 -576.7731 1957.7405C -577.00446 1958.4338 -577.50214 1958.4386 -578.0469 1958.4779C -578.5916 1958.5168 -579.72296 1957.8074 -579.72296 1957.8074C -579.72296 1957.8074 -579.4079 1959.8663 -579.52185 1960.4891C -579.63574 1961.1119 -579.59955 1961.2454 -579.99115 1961.4948C -580.38275 1961.7441 -581.2631 1961.6621 -581.66724 1961.4948C -582.0713 1961.3274 -582.1866 1961.5148 -582.33765 1960.8243C -582.4887 1960.1346 -581.19794 1957.7405 -581.19794 1957.7405L-581.19794 1957.7405L-581.19794 1957.7406z" stroke="none" fill="#C0B788" fill-rule="nonzero" />
                            <path d="M-616.3685 1923.5052L-616.03656 1929.896L-613.2147 1927.3231C -613.2147 1927.3231 -611.0802 1928.467 -609.7289 1928.3191C -608.3776 1928.1711 -605.7451 1926.1611 -605.7451 1926.1611C -605.7451 1926.1611 -608.6168 1923.0692 -610.22687 1923.1732C -611.837 1923.2772 -613.4637 1925.9951 -613.4637 1925.9951L-613.4637 1925.9951L-616.3685 1923.5052z" stroke="none" fill="#65E3BF" fill-rule="nonzero" />
						</g>
					</g>
				</g>
			</g>
		</g>
	</g>
</g>
</svg>